<?xml version="1.0" encoding="UTF-8" standalone="no"?>
<svg
   xmlns:dc="http://purl.org/dc/elements/1.1/"
   xmlns:cc="http://creativecommons.org/ns#"
   xmlns:rdf="http://www.w3.org/1999/02/22-rdf-syntax-ns#"
   xmlns:svg="http://www.w3.org/2000/svg"
   xmlns="http://www.w3.org/2000/svg"
   xmlns:sodipodi="http://sodipodi.sourceforge.net/DTD/sodipodi-0.dtd"
   xmlns:inkscape="http://www.inkscape.org/namespaces/inkscape"
   width="170"
   height="150"
   version="1.1"
   id="svg20"
   sodipodi:docname="stave-space.svg"
   inkscape:version="0.92.4 5da689c313, 2019-01-14"
   inkscape:export-filename="/home/aledjonesviola/composer/src/assets/engraving/stave-space.svg.png"
   inkscape:export-xdpi="96"
   inkscape:export-ydpi="96">
  <metadata
     id="metadata26">
    <rdf:RDF>
      <cc:Work
         rdf:about="">
        <dc:format>image/svg+xml</dc:format>
        <dc:type
           rdf:resource="http://purl.org/dc/dcmitype/StillImage" />
        <dc:title></dc:title>
      </cc:Work>
    </rdf:RDF>
  </metadata>
  <defs
     id="defs24" />
  <sodipodi:namedview
     pagecolor="#ffffff"
     bordercolor="#666666"
     borderopacity="1"
     objecttolerance="10"
     gridtolerance="10"
     guidetolerance="10"
     inkscape:pageopacity="0"
     inkscape:pageshadow="2"
     inkscape:window-width="1366"
     inkscape:window-height="688"
     id="namedview22"
     showgrid="false"
     inkscape:zoom="1.5733333"
     inkscape:cx="85"
     inkscape:cy="78.177966"
     inkscape:window-x="0"
     inkscape:window-y="40"
     inkscape:window-maximized="1"
     inkscape:current-layer="svg20" />
  <!-- Created with Method Draw - http://github.com/duopixel/Method-Draw/ -->
  <g
     id="g127">
    <line
       stroke-linecap="undefined"
       stroke-linejoin="undefined"
       id="svg_2"
       y2="22"
       x2="135"
       y1="22"
       x1="15"
       style="fill:none;stroke:#000000;stroke-width:4" />
    <line
       stroke-linecap="undefined"
       stroke-linejoin="undefined"
       id="svg_3"
       y2="49"
       x2="135"
       y1="49"
       x1="15"
       style="fill:none;stroke:#000000;stroke-width:4" />
    <line
       stroke-linecap="undefined"
       stroke-linejoin="undefined"
       id="svg_4"
       y2="75"
       x2="135"
       y1="75"
       x1="15"
       style="fill:none;stroke:#000000;stroke-width:4" />
    <line
       stroke-linecap="undefined"
       stroke-linejoin="undefined"
       id="svg_5"
       y2="101"
       x2="135"
       y1="101"
       x1="15"
       style="fill:none;stroke:#000000;stroke-width:4" />
    <line
       stroke-linecap="undefined"
       stroke-linejoin="undefined"
       id="svg_6"
       y2="127"
       x2="135"
       y1="127"
       x1="15"
       style="fill:none;stroke:#000000;stroke-width:4" />
  </g>
  <path
     style="fill:#ffaa50;stroke:#000000;stroke-width:0"
     inkscape:connector-curvature="0"
     stroke-opacity="null"
     d="m 149.73462,99.3136 4.67649,8.54364 h -2.33824 v 12.38198 h 2.33824 l -4.67649,8.54364 -4.67646,-8.54364 h 2.33823 v -12.38198 h -2.33823 z"
     id="svg_8" />
  <g
     aria-label=""
     transform="matrix(2.4618644,0,0,2.4618644,18.207627,-2.2881349)"
     style="font-style:normal;font-variant:normal;font-weight:normal;font-stretch:normal;font-size:40px;line-height:1.25;font-family:Bravura;-inkscape-font-specification:Bravura;letter-spacing:0px;word-spacing:0px;fill:#000000;fill-opacity:1;stroke:none;image-rendering:auto"
     id="flowRoot28">
    <path
       d="M 23.64,42 C 18.32,42 15,44.2 15,46.92 15,49.6 17.28,52 23.24,52 29.8,52 31.88,49.72 31.88,46.92 31.88,44.08 27.36,42 23.64,42 Z m -4.2,2.48 c 0.44,-1.4 1.92,-1.6 3.16,-1.6 2.76,0 4.96,2.96 4.96,5.36 0,1.24 -0.52,2.36 -1.84,2.68 -0.4,0.12 -0.84,0.16 -1.24,0.16 -1.44,0 -2.92,-0.96 -3.76,-2.08 -0.8,-0.92 -1.4,-2.28 -1.4,-3.56 0,-0.32 0.04,-0.64 0.12,-0.96 z"
       style=""
       id="path129" />
  </g>
</svg>
