[
  [
    {"pitch": 43, "velocity": 64, "when": 0},
    {"pitch": 50, "velocity": 69, "when": 3},
    {"pitch": 59, "velocity": 88, "when": 6},
    {"pitch": 57, "velocity": 68, "when": 9},
    {"pitch": 59, "velocity": 80, "when": 12},
    {"pitch": 50, "velocity": 68, "when": 15},
    {"pitch": 59, "velocity": 82, "when": 18},
    {"pitch": 50, "velocity": 68, "when": 21},
    {"pitch": 43, "velocity": 67, "when": 24},
    {"pitch": 50, "velocity": 70, "when": 27},
    {"pitch": 59, "velocity": 83, "when": 30},
    {"pitch": 57, "velocity": 76, "when": 33},
    {"pitch": 59, "velocity": 80, "when": 36},
    {"pitch": 50, "velocity": 70, "when": 39},
    {"pitch": 59, "velocity": 81, "when": 42},
    {"pitch": 50, "velocity": 70, "when": 45},
    {"pitch": 43, "velocity": 69, "when": 48},
    {"pitch": 52, "velocity": 71, "when": 51},
    {"pitch": 60, "velocity": 91, "when": 54},
    {"pitch": 59, "velocity": 78, "when": 57},
    {"pitch": 60, "velocity": 78, "when": 60},
    {"pitch": 52, "velocity": 69, "when": 63},
    {"pitch": 60, "velocity": 90, "when": 66},
    {"pitch": 52, "velocity": 75, "when": 69},
    {"pitch": 43, "velocity": 68, "when": 72},
    {"pitch": 52, "velocity": 79, "when": 75},
    {"pitch": 60, "velocity": 96, "when": 78},
    {"pitch": 59, "velocity": 75, "when": 81},

    {"pitch": 60, "velocity": 80, "when": 90},
    {"pitch": 52, "velocity": 68, "when": 93},
    {"pitch": 60, "velocity": 92, "when": 96},
    {"pitch": 52, "velocity": 72, "when": 99}
  ]
]