<?xml version="1.0" encoding="UTF-8"?>
<svg width="700pt" height="700pt" version="1.0" viewBox="0 0 700 700" xmlns="http://www.w3.org/2000/svg" xmlns:xlink="http://www.w3.org/1999/xlink">
 <path fill="#101010" d="m350 13.826-336 336-0.34864 1e-5 0.17432 0.1743-0.17432 0.17431 0.34864 1e-5 336 336 336-336h0.34863l-0.17431-0.17432 0.17431-0.17431h-0.34863l-222.27-222.27c-0.31936 65.43-0.91887 242.08-1.5219 244.89-5.7436 28-32.068 54.324-67.487 67.008-22.017 8.1368-66.77 8.1368-88.787 0-56-20.342-82.324-67.965-61.264-110.8 17.47-35.419 57.436-56.719 108.17-57.437 22.785 0.93041 42.58 9.8121 61.726 27.521 6.9402 6.2222 12.445 11.487 12.445 11.487v-213.39z" style="paint-order:stroke markers fill"/>
</svg>
